# xmcd CD database file
#
# Track frame offsets:
#	150
#	28140
#	45773
#	59036
#	74154
#	88651
#	110201
#	128994
#	141042
#
# Disc length: 2012 seconds
#
# Revision: 0
# Processed by: cddbd v1.5.2PL0 Copyright (c) Steve Scherf et al.
# Submitted via: CDex 1.70beta2
#
DISCID=8a07da09
DTITLE=Avi Lebovitch - Constant Chase
DYEAR=2002
DGENRE=Jazz
TTITLE0=To Kim
TTITLE1=Sound of Words
TTITLE2=Constant Chase
TTITLE3=Everything
TTITLE4=Avish
TTITLE5=Won't Fade Away
TTITLE6=Truth
TTITLE7=The Sheik Sleeps
TTITLE8=Last Inspiration
EXTD=YEAR: 2002
EXTT0=
EXTT1=
EXTT2=
EXTT3=
EXTT4=
EXTT5=
EXTT6=
EXTT7=
EXTT8=
PLAYORDER=
